<?xml version="1.0" encoding="utf-8" standalone="no"?>
<!DOCTYPE svg PUBLIC "-//W3C//DTD SVG 1.1//EN"
  "http://www.w3.org/Graphics/SVG/1.1/DTD/svg11.dtd">
<svg xmlns:xlink="http://www.w3.org/1999/xlink" width="1080pt" height="360pt" viewBox="0 0 1080 360" xmlns="http://www.w3.org/2000/svg" version="1.1">
 <metadata>
  <rdf:RDF xmlns:dc="http://purl.org/dc/elements/1.1/" xmlns:cc="http://creativecommons.org/ns#" xmlns:rdf="http://www.w3.org/1999/02/22-rdf-syntax-ns#">
   <cc:Work>
    <dc:type rdf:resource="http://purl.org/dc/dcmitype/StillImage"/>
    <dc:date>2026-03-02T15:49:26.196295</dc:date>
    <dc:format>image/svg+xml</dc:format>
    <dc:creator>
     <cc:Agent>
      <dc:title>Matplotlib v3.10.3, https://matplotlib.org/</dc:title>
     </cc:Agent>
    </dc:creator>
   </cc:Work>
  </rdf:RDF>
 </metadata>
 <defs>
  <style type="text/css">*{stroke-linejoin: round; stroke-linecap: butt}</style>
 </defs>
 <g id="figure_1">
  <g id="patch_1">
   <path d="M 0 360 
L 1080 360 
L 1080 0 
L 0 0 
z
" style="fill: #ffffff"/>
  </g>
  <g id="axes_1">
   <g id="patch_2">
    <path d="M 70.985 295.72 
L 373.226667 295.72 
L 373.226667 33.36 
L 70.985 33.36 
z
" style="fill: #ffffff"/>
   </g>
   <g id="patch_3">
    <path d="M 84.723258 295.72 
L 105.184492 295.72 
L 105.184492 45.853333 
L 84.723258 45.853333 
z
" clip-path="url(#pa73b9ef470)" style="fill: #1f77b4"/>
   </g>
   <g id="patch_4">
    <path d="M 143.183928 295.72 
L 163.645163 295.72 
L 163.645163 101.379259 
L 143.183928 101.379259 
z
" clip-path="url(#pa73b9ef470)" style="fill: #1f77b4"/>
   </g>
   <g id="patch_5">
    <path d="M 201.644599 295.72 
L 222.105833 295.72 
L 222.105833 205.49037 
L 201.644599 205.49037 
z
" clip-path="url(#pa73b9ef470)" style="fill: #1f77b4"/>
   </g>
   <g id="patch_6">
    <path d="M 260.105269 295.72 
L 280.566504 295.72 
L 280.566504 233.253333 
L 260.105269 233.253333 
z
" clip-path="url(#pa73b9ef470)" style="fill: #1f77b4"/>
   </g>
   <g id="patch_7">
    <path d="M 318.56594 295.72 
L 339.027174 295.72 
L 339.027174 240.194074 
L 318.56594 240.194074 
z
" clip-path="url(#pa73b9ef470)" style="fill: #1f77b4"/>
   </g>
   <g id="patch_8">
    <path d="M 105.184492 295.72 
L 125.645727 295.72 
L 125.645727 177.727407 
L 105.184492 177.727407 
z
" clip-path="url(#pa73b9ef470)" style="fill: #ff7f0e"/>
   </g>
   <g id="patch_9">
    <path d="M 163.645163 295.72 
L 184.106397 295.72 
L 184.106397 233.253333 
L 163.645163 233.253333 
z
" clip-path="url(#pa73b9ef470)" style="fill: #ff7f0e"/>
   </g>
   <g id="patch_10">
    <path d="M 222.105833 295.72 
L 242.567068 295.72 
L 242.567068 219.371852 
L 222.105833 219.371852 
z
" clip-path="url(#pa73b9ef470)" style="fill: #ff7f0e"/>
   </g>
   <g id="patch_11">
    <path d="M 280.566504 295.72 
L 301.027739 295.72 
L 301.027739 233.253333 
L 280.566504 233.253333 
z
" clip-path="url(#pa73b9ef470)" style="fill: #ff7f0e"/>
   </g>
   <g id="patch_12">
    <path d="M 339.027174 295.72 
L 359.488409 295.72 
L 359.488409 143.023704 
L 339.027174 143.023704 
z
" clip-path="url(#pa73b9ef470)" style="fill: #ff7f0e"/>
   </g>
   <g id="matplotlib.axis_1">
    <g id="xtick_1">
     <g id="line2d_1">
      <defs>
       <path id="md8a6177118" d="M 0 0 
L 0 3.5 
" style="stroke: #000000; stroke-width: 0.8"/>
      </defs>
      <g>
       <use xlink:href="#md8a6177118" x="105.184492" y="295.72" style="stroke: #000000; stroke-width: 0.8"/>
      </g>
     </g>
     <g id="text_1">
      <!-- 1 -->
      <g transform="translate(98.185742 319.436562) scale(0.22 -0.22)">
       <defs>
        <path id="DejaVuSans-31" d="M 794 531 
L 1825 531 
L 1825 4091 
L 703 3866 
L 703 4441 
L 1819 4666 
L 2450 4666 
L 2450 531 
L 3481 531 
L 3481 0 
L 794 0 
L 794 531 
z
" transform="scale(0.015625)"/>
       </defs>
       <use xlink:href="#DejaVuSans-31"/>
      </g>
     </g>
    </g>
    <g id="xtick_2">
     <g id="line2d_2">
      <g>
       <use xlink:href="#md8a6177118" x="163.645163" y="295.72" style="stroke: #000000; stroke-width: 0.8"/>
      </g>
     </g>
     <g id="text_2">
      <!-- 2 -->
      <g transform="translate(156.646413 319.436562) scale(0.22 -0.22)">
       <defs>
        <path id="DejaVuSans-32" d="M 1228 531 
L 3431 531 
L 3431 0 
L 469 0 
L 469 531 
Q 828 903 1448 1529 
Q 2069 2156 2228 2338 
Q 2531 2678 2651 2914 
Q 2772 3150 2772 3378 
Q 2772 3750 2511 3984 
Q 2250 4219 1831 4219 
Q 1534 4219 1204 4116 
Q 875 4013 500 3803 
L 500 4441 
Q 881 4594 1212 4672 
Q 1544 4750 1819 4750 
Q 2544 4750 2975 4387 
Q 3406 4025 3406 3419 
Q 3406 3131 3298 2873 
Q 3191 2616 2906 2266 
Q 2828 2175 2409 1742 
Q 1991 1309 1228 531 
z
" transform="scale(0.015625)"/>
       </defs>
       <use xlink:href="#DejaVuSans-32"/>
      </g>
     </g>
    </g>
    <g id="xtick_3">
     <g id="line2d_3">
      <g>
       <use xlink:href="#md8a6177118" x="222.105833" y="295.72" style="stroke: #000000; stroke-width: 0.8"/>
      </g>
     </g>
     <g id="text_3">
      <!-- 3 -->
      <g transform="translate(215.107083 319.436562) scale(0.22 -0.22)">
       <defs>
        <path id="DejaVuSans-33" d="M 2597 2516 
Q 3050 2419 3304 2112 
Q 3559 1806 3559 1356 
Q 3559 666 3084 287 
Q 2609 -91 1734 -91 
Q 1441 -91 1130 -33 
Q 819 25 488 141 
L 488 750 
Q 750 597 1062 519 
Q 1375 441 1716 441 
Q 2309 441 2620 675 
Q 2931 909 2931 1356 
Q 2931 1769 2642 2001 
Q 2353 2234 1838 2234 
L 1294 2234 
L 1294 2753 
L 1863 2753 
Q 2328 2753 2575 2939 
Q 2822 3125 2822 3475 
Q 2822 3834 2567 4026 
Q 2313 4219 1838 4219 
Q 1578 4219 1281 4162 
Q 984 4106 628 3988 
L 628 4550 
Q 988 4650 1302 4700 
Q 1616 4750 1894 4750 
Q 2613 4750 3031 4423 
Q 3450 4097 3450 3541 
Q 3450 3153 3228 2886 
Q 3006 2619 2597 2516 
z
" transform="scale(0.015625)"/>
       </defs>
       <use xlink:href="#DejaVuSans-33"/>
      </g>
     </g>
    </g>
    <g id="xtick_4">
     <g id="line2d_4">
      <g>
       <use xlink:href="#md8a6177118" x="280.566504" y="295.72" style="stroke: #000000; stroke-width: 0.8"/>
      </g>
     </g>
     <g id="text_4">
      <!-- 4 -->
      <g transform="translate(273.567754 319.436562) scale(0.22 -0.22)">
       <defs>
        <path id="DejaVuSans-34" d="M 2419 4116 
L 825 1625 
L 2419 1625 
L 2419 4116 
z
M 2253 4666 
L 3047 4666 
L 3047 1625 
L 3713 1625 
L 3713 1100 
L 3047 1100 
L 3047 0 
L 2419 0 
L 2419 1100 
L 313 1100 
L 313 1709 
L 2253 4666 
z
" transform="scale(0.015625)"/>
       </defs>
       <use xlink:href="#DejaVuSans-34"/>
      </g>
     </g>
    </g>
    <g id="xtick_5">
     <g id="line2d_5">
      <g>
       <use xlink:href="#md8a6177118" x="339.027174" y="295.72" style="stroke: #000000; stroke-width: 0.8"/>
      </g>
     </g>
     <g id="text_5">
      <!-- 5 -->
      <g transform="translate(332.028424 319.436562) scale(0.22 -0.22)">
       <defs>
        <path id="DejaVuSans-35" d="M 691 4666 
L 3169 4666 
L 3169 4134 
L 1269 4134 
L 1269 2991 
Q 1406 3038 1543 3061 
Q 1681 3084 1819 3084 
Q 2600 3084 3056 2656 
Q 3513 2228 3513 1497 
Q 3513 744 3044 326 
Q 2575 -91 1722 -91 
Q 1428 -91 1123 -41 
Q 819 9 494 109 
L 494 744 
Q 775 591 1075 516 
Q 1375 441 1709 441 
Q 2250 441 2565 725 
Q 2881 1009 2881 1497 
Q 2881 1984 2565 2268 
Q 2250 2553 1709 2553 
Q 1456 2553 1204 2497 
Q 953 2441 691 2322 
L 691 4666 
z
" transform="scale(0.015625)"/>
       </defs>
       <use xlink:href="#DejaVuSans-35"/>
      </g>
     </g>
    </g>
   </g>
   <g id="matplotlib.axis_2">
    <g id="ytick_1">
     <g id="line2d_6">
      <defs>
       <path id="mf0b7a00d24" d="M 0 0 
L -3.5 0 
" style="stroke: #000000; stroke-width: 0.8"/>
      </defs>
      <g>
       <use xlink:href="#mf0b7a00d24" x="70.985" y="295.72" style="stroke: #000000; stroke-width: 0.8"/>
      </g>
     </g>
     <g id="text_6">
      <!-- 0 -->
      <g transform="translate(49.9875 304.078281) scale(0.22 -0.22)">
       <defs>
        <path id="DejaVuSans-30" d="M 2034 4250 
Q 1547 4250 1301 3770 
Q 1056 3291 1056 2328 
Q 1056 1369 1301 889 
Q 1547 409 2034 409 
Q 2525 409 2770 889 
Q 3016 1369 3016 2328 
Q 3016 3291 2770 3770 
Q 2525 4250 2034 4250 
z
M 2034 4750 
Q 2819 4750 3233 4129 
Q 3647 3509 3647 2328 
Q 3647 1150 3233 529 
Q 2819 -91 2034 -91 
Q 1250 -91 836 529 
Q 422 1150 422 2328 
Q 422 3509 836 4129 
Q 1250 4750 2034 4750 
z
" transform="scale(0.015625)"/>
       </defs>
       <use xlink:href="#DejaVuSans-30"/>
      </g>
     </g>
    </g>
    <g id="ytick_2">
     <g id="line2d_7">
      <g>
       <use xlink:href="#mf0b7a00d24" x="70.985" y="226.312593" style="stroke: #000000; stroke-width: 0.8"/>
      </g>
     </g>
     <g id="text_7">
      <!-- 10 -->
      <g transform="translate(35.99 234.670874) scale(0.22 -0.22)">
       <use xlink:href="#DejaVuSans-31"/>
       <use xlink:href="#DejaVuSans-30" transform="translate(63.623047 0)"/>
      </g>
     </g>
    </g>
    <g id="ytick_3">
     <g id="line2d_8">
      <g>
       <use xlink:href="#mf0b7a00d24" x="70.985" y="156.905185" style="stroke: #000000; stroke-width: 0.8"/>
      </g>
     </g>
     <g id="text_8">
      <!-- 20 -->
      <g transform="translate(35.99 165.263466) scale(0.22 -0.22)">
       <use xlink:href="#DejaVuSans-32"/>
       <use xlink:href="#DejaVuSans-30" transform="translate(63.623047 0)"/>
      </g>
     </g>
    </g>
    <g id="ytick_4">
     <g id="line2d_9">
      <g>
       <use xlink:href="#mf0b7a00d24" x="70.985" y="87.497778" style="stroke: #000000; stroke-width: 0.8"/>
      </g>
     </g>
     <g id="text_9">
      <!-- 30 -->
      <g transform="translate(35.99 95.856059) scale(0.22 -0.22)">
       <use xlink:href="#DejaVuSans-33"/>
       <use xlink:href="#DejaVuSans-30" transform="translate(63.623047 0)"/>
      </g>
     </g>
    </g>
    <g id="text_10">
     <!-- Number of Differences -->
     <g transform="translate(27.414688 288.924219) rotate(-90) scale(0.22 -0.22)">
      <defs>
       <path id="DejaVuSans-4e" d="M 628 4666 
L 1478 4666 
L 3547 763 
L 3547 4666 
L 4159 4666 
L 4159 0 
L 3309 0 
L 1241 3903 
L 1241 0 
L 628 0 
L 628 4666 
z
" transform="scale(0.015625)"/>
       <path id="DejaVuSans-75" d="M 544 1381 
L 544 3500 
L 1119 3500 
L 1119 1403 
Q 1119 906 1312 657 
Q 1506 409 1894 409 
Q 2359 409 2629 706 
Q 2900 1003 2900 1516 
L 2900 3500 
L 3475 3500 
L 3475 0 
L 2900 0 
L 2900 538 
Q 2691 219 2414 64 
Q 2138 -91 1772 -91 
Q 1169 -91 856 284 
Q 544 659 544 1381 
z
M 1991 3584 
L 1991 3584 
z
" transform="scale(0.015625)"/>
       <path id="DejaVuSans-6d" d="M 3328 2828 
Q 3544 3216 3844 3400 
Q 4144 3584 4550 3584 
Q 5097 3584 5394 3201 
Q 5691 2819 5691 2113 
L 5691 0 
L 5113 0 
L 5113 2094 
Q 5113 2597 4934 2840 
Q 4756 3084 4391 3084 
Q 3944 3084 3684 2787 
Q 3425 2491 3425 1978 
L 3425 0 
L 2847 0 
L 2847 2094 
Q 2847 2600 2669 2842 
Q 2491 3084 2119 3084 
Q 1678 3084 1418 2786 
Q 1159 2488 1159 1978 
L 1159 0 
L 581 0 
L 581 3500 
L 1159 3500 
L 1159 2956 
Q 1356 3278 1631 3431 
Q 1906 3584 2284 3584 
Q 2666 3584 2933 3390 
Q 3200 3197 3328 2828 
z
" transform="scale(0.015625)"/>
       <path id="DejaVuSans-62" d="M 3116 1747 
Q 3116 2381 2855 2742 
Q 2594 3103 2138 3103 
Q 1681 3103 1420 2742 
Q 1159 2381 1159 1747 
Q 1159 1113 1420 752 
Q 1681 391 2138 391 
Q 2594 391 2855 752 
Q 3116 1113 3116 1747 
z
M 1159 2969 
Q 1341 3281 1617 3432 
Q 1894 3584 2278 3584 
Q 2916 3584 3314 3078 
Q 3713 2572 3713 1747 
Q 3713 922 3314 415 
Q 2916 -91 2278 -91 
Q 1894 -91 1617 61 
Q 1341 213 1159 525 
L 1159 0 
L 581 0 
L 581 4863 
L 1159 4863 
L 1159 2969 
z
" transform="scale(0.015625)"/>
       <path id="DejaVuSans-65" d="M 3597 1894 
L 3597 1613 
L 953 1613 
Q 991 1019 1311 708 
Q 1631 397 2203 397 
Q 2534 397 2845 478 
Q 3156 559 3463 722 
L 3463 178 
Q 3153 47 2828 -22 
Q 2503 -91 2169 -91 
Q 1331 -91 842 396 
Q 353 884 353 1716 
Q 353 2575 817 3079 
Q 1281 3584 2069 3584 
Q 2775 3584 3186 3129 
Q 3597 2675 3597 1894 
z
M 3022 2063 
Q 3016 2534 2758 2815 
Q 2500 3097 2075 3097 
Q 1594 3097 1305 2825 
Q 1016 2553 972 2059 
L 3022 2063 
z
" transform="scale(0.015625)"/>
       <path id="DejaVuSans-72" d="M 2631 2963 
Q 2534 3019 2420 3045 
Q 2306 3072 2169 3072 
Q 1681 3072 1420 2755 
Q 1159 2438 1159 1844 
L 1159 0 
L 581 0 
L 581 3500 
L 1159 3500 
L 1159 2956 
Q 1341 3275 1631 3429 
Q 1922 3584 2338 3584 
Q 2397 3584 2469 3576 
Q 2541 3569 2628 3553 
L 2631 2963 
z
" transform="scale(0.015625)"/>
       <path id="DejaVuSans-20" transform="scale(0.015625)"/>
       <path id="DejaVuSans-6f" d="M 1959 3097 
Q 1497 3097 1228 2736 
Q 959 2375 959 1747 
Q 959 1119 1226 758 
Q 1494 397 1959 397 
Q 2419 397 2687 759 
Q 2956 1122 2956 1747 
Q 2956 2369 2687 2733 
Q 2419 3097 1959 3097 
z
M 1959 3584 
Q 2709 3584 3137 3096 
Q 3566 2609 3566 1747 
Q 3566 888 3137 398 
Q 2709 -91 1959 -91 
Q 1206 -91 779 398 
Q 353 888 353 1747 
Q 353 2609 779 3096 
Q 1206 3584 1959 3584 
z
" transform="scale(0.015625)"/>
       <path id="DejaVuSans-66" d="M 2375 4863 
L 2375 4384 
L 1825 4384 
Q 1516 4384 1395 4259 
Q 1275 4134 1275 3809 
L 1275 3500 
L 2222 3500 
L 2222 3053 
L 1275 3053 
L 1275 0 
L 697 0 
L 697 3053 
L 147 3053 
L 147 3500 
L 697 3500 
L 697 3744 
Q 697 4328 969 4595 
Q 1241 4863 1831 4863 
L 2375 4863 
z
" transform="scale(0.015625)"/>
       <path id="DejaVuSans-44" d="M 1259 4147 
L 1259 519 
L 2022 519 
Q 2988 519 3436 956 
Q 3884 1394 3884 2338 
Q 3884 3275 3436 3711 
Q 2988 4147 2022 4147 
L 1259 4147 
z
M 628 4666 
L 1925 4666 
Q 3281 4666 3915 4102 
Q 4550 3538 4550 2338 
Q 4550 1131 3912 565 
Q 3275 0 1925 0 
L 628 0 
L 628 4666 
z
" transform="scale(0.015625)"/>
       <path id="DejaVuSans-69" d="M 603 3500 
L 1178 3500 
L 1178 0 
L 603 0 
L 603 3500 
z
M 603 4863 
L 1178 4863 
L 1178 4134 
L 603 4134 
L 603 4863 
z
" transform="scale(0.015625)"/>
       <path id="DejaVuSans-6e" d="M 3513 2113 
L 3513 0 
L 2938 0 
L 2938 2094 
Q 2938 2591 2744 2837 
Q 2550 3084 2163 3084 
Q 1697 3084 1428 2787 
Q 1159 2491 1159 1978 
L 1159 0 
L 581 0 
L 581 3500 
L 1159 3500 
L 1159 2956 
Q 1366 3272 1645 3428 
Q 1925 3584 2291 3584 
Q 2894 3584 3203 3211 
Q 3513 2838 3513 2113 
z
" transform="scale(0.015625)"/>
       <path id="DejaVuSans-63" d="M 3122 3366 
L 3122 2828 
Q 2878 2963 2633 3030 
Q 2388 3097 2138 3097 
Q 1578 3097 1268 2742 
Q 959 2388 959 1747 
Q 959 1106 1268 751 
Q 1578 397 2138 397 
Q 2388 397 2633 464 
Q 2878 531 3122 666 
L 3122 134 
Q 2881 22 2623 -34 
Q 2366 -91 2075 -91 
Q 1284 -91 818 406 
Q 353 903 353 1747 
Q 353 2603 823 3093 
Q 1294 3584 2113 3584 
Q 2378 3584 2631 3529 
Q 2884 3475 3122 3366 
z
" transform="scale(0.015625)"/>
       <path id="DejaVuSans-73" d="M 2834 3397 
L 2834 2853 
Q 2591 2978 2328 3040 
Q 2066 3103 1784 3103 
Q 1356 3103 1142 2972 
Q 928 2841 928 2578 
Q 928 2378 1081 2264 
Q 1234 2150 1697 2047 
L 1894 2003 
Q 2506 1872 2764 1633 
Q 3022 1394 3022 966 
Q 3022 478 2636 193 
Q 2250 -91 1575 -91 
Q 1294 -91 989 -36 
Q 684 19 347 128 
L 347 722 
Q 666 556 975 473 
Q 1284 391 1588 391 
Q 1994 391 2212 530 
Q 2431 669 2431 922 
Q 2431 1156 2273 1281 
Q 2116 1406 1581 1522 
L 1381 1569 
Q 847 1681 609 1914 
Q 372 2147 372 2553 
Q 372 3047 722 3315 
Q 1072 3584 1716 3584 
Q 2034 3584 2315 3537 
Q 2597 3491 2834 3397 
z
" transform="scale(0.015625)"/>
      </defs>
      <use xlink:href="#DejaVuSans-4e"/>
      <use xlink:href="#DejaVuSans-75" transform="translate(74.804688 0)"/>
      <use xlink:href="#DejaVuSans-6d" transform="translate(138.183594 0)"/>
      <use xlink:href="#DejaVuSans-62" transform="translate(235.595703 0)"/>
      <use xlink:href="#DejaVuSans-65" transform="translate(299.072266 0)"/>
      <use xlink:href="#DejaVuSans-72" transform="translate(360.595703 0)"/>
      <use xlink:href="#DejaVuSans-20" transform="translate(401.708984 0)"/>
      <use xlink:href="#DejaVuSans-6f" transform="translate(433.496094 0)"/>
      <use xlink:href="#DejaVuSans-66" transform="translate(494.677734 0)"/>
      <use xlink:href="#DejaVuSans-20" transform="translate(529.882812 0)"/>
      <use xlink:href="#DejaVuSans-44" transform="translate(561.669922 0)"/>
      <use xlink:href="#DejaVuSans-69" transform="translate(638.671875 0)"/>
      <use xlink:href="#DejaVuSans-66" transform="translate(666.455078 0)"/>
      <use xlink:href="#DejaVuSans-66" transform="translate(701.660156 0)"/>
      <use xlink:href="#DejaVuSans-65" transform="translate(736.865234 0)"/>
      <use xlink:href="#DejaVuSans-72" transform="translate(798.388672 0)"/>
      <use xlink:href="#DejaVuSans-65" transform="translate(837.251953 0)"/>
      <use xlink:href="#DejaVuSans-6e" transform="translate(898.775391 0)"/>
      <use xlink:href="#DejaVuSans-63" transform="translate(962.154297 0)"/>
      <use xlink:href="#DejaVuSans-65" transform="translate(1017.134766 0)"/>
      <use xlink:href="#DejaVuSans-73" transform="translate(1078.658203 0)"/>
     </g>
    </g>
   </g>
   <g id="patch_13">
    <path d="M 70.985 295.72 
L 70.985 33.36 
" style="fill: none; stroke: #000000; stroke-width: 0.8; stroke-linejoin: miter; stroke-linecap: square"/>
   </g>
   <g id="patch_14">
    <path d="M 373.226667 295.72 
L 373.226667 33.36 
" style="fill: none; stroke: #000000; stroke-width: 0.8; stroke-linejoin: miter; stroke-linecap: square"/>
   </g>
   <g id="patch_15">
    <path d="M 70.985 295.72 
L 373.226667 295.72 
" style="fill: none; stroke: #000000; stroke-width: 0.8; stroke-linejoin: miter; stroke-linecap: square"/>
   </g>
   <g id="patch_16">
    <path d="M 70.985 33.36 
L 373.226667 33.36 
" style="fill: none; stroke: #000000; stroke-width: 0.8; stroke-linejoin: miter; stroke-linecap: square"/>
   </g>
   <g id="text_11">
    <!-- EN-DE -->
    <g transform="translate(187.536615 27.36) scale(0.22 -0.22)">
     <defs>
      <path id="DejaVuSans-45" d="M 628 4666 
L 3578 4666 
L 3578 4134 
L 1259 4134 
L 1259 2753 
L 3481 2753 
L 3481 2222 
L 1259 2222 
L 1259 531 
L 3634 531 
L 3634 0 
L 628 0 
L 628 4666 
z
" transform="scale(0.015625)"/>
      <path id="DejaVuSans-2d" d="M 313 2009 
L 1997 2009 
L 1997 1497 
L 313 1497 
L 313 2009 
z
" transform="scale(0.015625)"/>
     </defs>
     <use xlink:href="#DejaVuSans-45"/>
     <use xlink:href="#DejaVuSans-4e" transform="translate(63.183594 0)"/>
     <use xlink:href="#DejaVuSans-2d" transform="translate(137.988281 0)"/>
     <use xlink:href="#DejaVuSans-44" transform="translate(174.072266 0)"/>
     <use xlink:href="#DejaVuSans-45" transform="translate(251.074219 0)"/>
    </g>
   </g>
   <g id="legend_1">
    <g id="patch_17">
     <path d="M 156.805104 115.54375 
L 357.826667 115.54375 
Q 362.226667 115.54375 362.226667 111.14375 
L 362.226667 48.76 
Q 362.226667 44.36 357.826667 44.36 
L 156.805104 44.36 
Q 152.405104 44.36 152.405104 48.76 
L 152.405104 111.14375 
Q 152.405104 115.54375 156.805104 115.54375 
z
" style="fill: #ffffff; opacity: 0.8; stroke: #cccccc; stroke-linejoin: miter"/>
    </g>
    <g id="patch_18">
     <path d="M 161.205104 69.876562 
L 205.205104 69.876562 
L 205.205104 54.476562 
L 161.205104 54.476562 
z
" style="fill: #1f77b4"/>
    </g>
    <g id="text_12">
     <!-- Annotator 1 -->
     <g transform="translate(222.805104 69.876562) scale(0.22 -0.22)">
      <defs>
       <path id="DejaVuSans-41" d="M 2188 4044 
L 1331 1722 
L 3047 1722 
L 2188 4044 
z
M 1831 4666 
L 2547 4666 
L 4325 0 
L 3669 0 
L 3244 1197 
L 1141 1197 
L 716 0 
L 50 0 
L 1831 4666 
z
" transform="scale(0.015625)"/>
       <path id="DejaVuSans-74" d="M 1172 4494 
L 1172 3500 
L 2356 3500 
L 2356 3053 
L 1172 3053 
L 1172 1153 
Q 1172 725 1289 603 
Q 1406 481 1766 481 
L 2356 481 
L 2356 0 
L 1766 0 
Q 1100 0 847 248 
Q 594 497 594 1153 
L 594 3053 
L 172 3053 
L 172 3500 
L 594 3500 
L 594 4494 
L 1172 4494 
z
" transform="scale(0.015625)"/>
       <path id="DejaVuSans-61" d="M 2194 1759 
Q 1497 1759 1228 1600 
Q 959 1441 959 1056 
Q 959 750 1161 570 
Q 1363 391 1709 391 
Q 2188 391 2477 730 
Q 2766 1069 2766 1631 
L 2766 1759 
L 2194 1759 
z
M 3341 1997 
L 3341 0 
L 2766 0 
L 2766 531 
Q 2569 213 2275 61 
Q 1981 -91 1556 -91 
Q 1019 -91 701 211 
Q 384 513 384 1019 
Q 384 1609 779 1909 
Q 1175 2209 1959 2209 
L 2766 2209 
L 2766 2266 
Q 2766 2663 2505 2880 
Q 2244 3097 1772 3097 
Q 1472 3097 1187 3025 
Q 903 2953 641 2809 
L 641 3341 
Q 956 3463 1253 3523 
Q 1550 3584 1831 3584 
Q 2591 3584 2966 3190 
Q 3341 2797 3341 1997 
z
" transform="scale(0.015625)"/>
      </defs>
      <use xlink:href="#DejaVuSans-41"/>
      <use xlink:href="#DejaVuSans-6e" transform="translate(68.408203 0)"/>
      <use xlink:href="#DejaVuSans-6e" transform="translate(131.787109 0)"/>
      <use xlink:href="#DejaVuSans-6f" transform="translate(195.166016 0)"/>
      <use xlink:href="#DejaVuSans-74" transform="translate(256.347656 0)"/>
      <use xlink:href="#DejaVuSans-61" transform="translate(295.556641 0)"/>
      <use xlink:href="#DejaVuSans-74" transform="translate(356.835938 0)"/>
      <use xlink:href="#DejaVuSans-6f" transform="translate(396.044922 0)"/>
      <use xlink:href="#DejaVuSans-72" transform="translate(457.226562 0)"/>
      <use xlink:href="#DejaVuSans-20" transform="translate(498.339844 0)"/>
      <use xlink:href="#DejaVuSans-31" transform="translate(530.126953 0)"/>
     </g>
    </g>
    <g id="patch_19">
     <path d="M 161.205104 102.168437 
L 205.205104 102.168437 
L 205.205104 86.768437 
L 161.205104 86.768437 
z
" style="fill: #ff7f0e"/>
    </g>
    <g id="text_13">
     <!-- Annotator 2 -->
     <g transform="translate(222.805104 102.168437) scale(0.22 -0.22)">
      <use xlink:href="#DejaVuSans-41"/>
      <use xlink:href="#DejaVuSans-6e" transform="translate(68.408203 0)"/>
      <use xlink:href="#DejaVuSans-6e" transform="translate(131.787109 0)"/>
      <use xlink:href="#DejaVuSans-6f" transform="translate(195.166016 0)"/>
      <use xlink:href="#DejaVuSans-74" transform="translate(256.347656 0)"/>
      <use xlink:href="#DejaVuSans-61" transform="translate(295.556641 0)"/>
      <use xlink:href="#DejaVuSans-74" transform="translate(356.835938 0)"/>
      <use xlink:href="#DejaVuSans-6f" transform="translate(396.044922 0)"/>
      <use xlink:href="#DejaVuSans-72" transform="translate(457.226562 0)"/>
      <use xlink:href="#DejaVuSans-20" transform="translate(498.339844 0)"/>
      <use xlink:href="#DejaVuSans-32" transform="translate(530.126953 0)"/>
     </g>
    </g>
   </g>
  </g>
  <g id="axes_2">
   <g id="patch_20">
    <path d="M 418.971667 295.72 
L 721.213333 295.72 
L 721.213333 33.36 
L 418.971667 33.36 
z
" style="fill: #ffffff"/>
   </g>
   <g id="patch_21">
    <path d="M 432.709924 295.72 
L 453.171159 295.72 
L 453.171159 204.305366 
L 432.709924 204.305366 
z
" clip-path="url(#pe7e677e973)" style="fill: #1f77b4"/>
   </g>
   <g id="patch_22">
    <path d="M 491.170595 295.72 
L 511.631829 295.72 
L 511.631829 228.682602 
L 491.170595 228.682602 
z
" clip-path="url(#pe7e677e973)" style="fill: #1f77b4"/>
   </g>
   <g id="patch_23">
    <path d="M 549.631265 295.72 
L 570.0925 295.72 
L 570.0925 167.739512 
L 549.631265 167.739512 
z
" clip-path="url(#pe7e677e973)" style="fill: #1f77b4"/>
   </g>
   <g id="patch_24">
    <path d="M 608.091936 295.72 
L 628.553171 295.72 
L 628.553171 125.07935 
L 608.091936 125.07935 
z
" clip-path="url(#pe7e677e973)" style="fill: #1f77b4"/>
   </g>
   <g id="patch_25">
    <path d="M 666.552606 295.72 
L 687.013841 295.72 
L 687.013841 192.116748 
L 666.552606 192.116748 
z
" clip-path="url(#pe7e677e973)" style="fill: #1f77b4"/>
   </g>
   <g id="patch_26">
    <path d="M 453.171159 295.72 
L 473.632394 295.72 
L 473.632394 45.853333 
L 453.171159 45.853333 
z
" clip-path="url(#pe7e677e973)" style="fill: #ff7f0e"/>
   </g>
   <g id="patch_27">
    <path d="M 511.631829 295.72 
L 532.093064 295.72 
L 532.093064 51.947642 
L 511.631829 51.947642 
z
" clip-path="url(#pe7e677e973)" style="fill: #ff7f0e"/>
   </g>
   <g id="patch_28">
    <path d="M 570.0925 295.72 
L 590.553735 295.72 
L 590.553735 216.493984 
L 570.0925 216.493984 
z
" clip-path="url(#pe7e677e973)" style="fill: #ff7f0e"/>
   </g>
   <g id="patch_29">
    <path d="M 628.553171 295.72 
L 649.014405 295.72 
L 649.014405 240.87122 
L 628.553171 240.87122 
z
" clip-path="url(#pe7e677e973)" style="fill: #ff7f0e"/>
   </g>
   <g id="patch_30">
    <path d="M 687.013841 295.72 
L 707.475076 295.72 
L 707.475076 192.116748 
L 687.013841 192.116748 
z
" clip-path="url(#pe7e677e973)" style="fill: #ff7f0e"/>
   </g>
   <g id="matplotlib.axis_3">
    <g id="xtick_6">
     <g id="line2d_10">
      <g>
       <use xlink:href="#md8a6177118" x="453.171159" y="295.72" style="stroke: #000000; stroke-width: 0.8"/>
      </g>
     </g>
     <g id="text_14">
      <!-- 1 -->
      <g transform="translate(446.172409 319.436562) scale(0.22 -0.22)">
       <use xlink:href="#DejaVuSans-31"/>
      </g>
     </g>
    </g>
    <g id="xtick_7">
     <g id="line2d_11">
      <g>
       <use xlink:href="#md8a6177118" x="511.631829" y="295.72" style="stroke: #000000; stroke-width: 0.8"/>
      </g>
     </g>
     <g id="text_15">
      <!-- 2 -->
      <g transform="translate(504.633079 319.436562) scale(0.22 -0.22)">
       <use xlink:href="#DejaVuSans-32"/>
      </g>
     </g>
    </g>
    <g id="xtick_8">
     <g id="line2d_12">
      <g>
       <use xlink:href="#md8a6177118" x="570.0925" y="295.72" style="stroke: #000000; stroke-width: 0.8"/>
      </g>
     </g>
     <g id="text_16">
      <!-- 3 -->
      <g transform="translate(563.09375 319.436562) scale(0.22 -0.22)">
       <use xlink:href="#DejaVuSans-33"/>
      </g>
     </g>
    </g>
    <g id="xtick_9">
     <g id="line2d_13">
      <g>
       <use xlink:href="#md8a6177118" x="628.553171" y="295.72" style="stroke: #000000; stroke-width: 0.8"/>
      </g>
     </g>
     <g id="text_17">
      <!-- 4 -->
      <g transform="translate(621.554421 319.436562) scale(0.22 -0.22)">
       <use xlink:href="#DejaVuSans-34"/>
      </g>
     </g>
    </g>
    <g id="xtick_10">
     <g id="line2d_14">
      <g>
       <use xlink:href="#md8a6177118" x="687.013841" y="295.72" style="stroke: #000000; stroke-width: 0.8"/>
      </g>
     </g>
     <g id="text_18">
      <!-- 5 -->
      <g transform="translate(680.015091 319.436562) scale(0.22 -0.22)">
       <use xlink:href="#DejaVuSans-35"/>
      </g>
     </g>
    </g>
    <g id="text_19">
     <!-- Difference Labels -->
     <g transform="translate(474.318594 344.728437) scale(0.22 -0.22)">
      <defs>
       <path id="DejaVuSans-4c" d="M 628 4666 
L 1259 4666 
L 1259 531 
L 3531 531 
L 3531 0 
L 628 0 
L 628 4666 
z
" transform="scale(0.015625)"/>
       <path id="DejaVuSans-6c" d="M 603 4863 
L 1178 4863 
L 1178 0 
L 603 0 
L 603 4863 
z
" transform="scale(0.015625)"/>
      </defs>
      <use xlink:href="#DejaVuSans-44"/>
      <use xlink:href="#DejaVuSans-69" transform="translate(77.001953 0)"/>
      <use xlink:href="#DejaVuSans-66" transform="translate(104.785156 0)"/>
      <use xlink:href="#DejaVuSans-66" transform="translate(139.990234 0)"/>
      <use xlink:href="#DejaVuSans-65" transform="translate(175.195312 0)"/>
      <use xlink:href="#DejaVuSans-72" transform="translate(236.71875 0)"/>
      <use xlink:href="#DejaVuSans-65" transform="translate(275.582031 0)"/>
      <use xlink:href="#DejaVuSans-6e" transform="translate(337.105469 0)"/>
      <use xlink:href="#DejaVuSans-63" transform="translate(400.484375 0)"/>
      <use xlink:href="#DejaVuSans-65" transform="translate(455.464844 0)"/>
      <use xlink:href="#DejaVuSans-20" transform="translate(516.988281 0)"/>
      <use xlink:href="#DejaVuSans-4c" transform="translate(548.775391 0)"/>
      <use xlink:href="#DejaVuSans-61" transform="translate(604.488281 0)"/>
      <use xlink:href="#DejaVuSans-62" transform="translate(665.767578 0)"/>
      <use xlink:href="#DejaVuSans-65" transform="translate(729.244141 0)"/>
      <use xlink:href="#DejaVuSans-6c" transform="translate(790.767578 0)"/>
      <use xlink:href="#DejaVuSans-73" transform="translate(818.550781 0)"/>
     </g>
    </g>
   </g>
   <g id="matplotlib.axis_4">
    <g id="ytick_5">
     <g id="line2d_15">
      <g>
       <use xlink:href="#mf0b7a00d24" x="418.971667" y="295.72" style="stroke: #000000; stroke-width: 0.8"/>
      </g>
     </g>
     <g id="text_20">
      <!-- 0 -->
      <g transform="translate(397.974167 304.078281) scale(0.22 -0.22)">
       <use xlink:href="#DejaVuSans-30"/>
      </g>
     </g>
    </g>
    <g id="ytick_6">
     <g id="line2d_16">
      <g>
       <use xlink:href="#mf0b7a00d24" x="418.971667" y="234.776911" style="stroke: #000000; stroke-width: 0.8"/>
      </g>
     </g>
     <g id="text_21">
      <!-- 10 -->
      <g transform="translate(383.976667 243.135192) scale(0.22 -0.22)">
       <use xlink:href="#DejaVuSans-31"/>
       <use xlink:href="#DejaVuSans-30" transform="translate(63.623047 0)"/>
      </g>
     </g>
    </g>
    <g id="ytick_7">
     <g id="line2d_17">
      <g>
       <use xlink:href="#mf0b7a00d24" x="418.971667" y="173.833821" style="stroke: #000000; stroke-width: 0.8"/>
      </g>
     </g>
     <g id="text_22">
      <!-- 20 -->
      <g transform="translate(383.976667 182.192102) scale(0.22 -0.22)">
       <use xlink:href="#DejaVuSans-32"/>
       <use xlink:href="#DejaVuSans-30" transform="translate(63.623047 0)"/>
      </g>
     </g>
    </g>
    <g id="ytick_8">
     <g id="line2d_18">
      <g>
       <use xlink:href="#mf0b7a00d24" x="418.971667" y="112.890732" style="stroke: #000000; stroke-width: 0.8"/>
      </g>
     </g>
     <g id="text_23">
      <!-- 30 -->
      <g transform="translate(383.976667 121.249013) scale(0.22 -0.22)">
       <use xlink:href="#DejaVuSans-33"/>
       <use xlink:href="#DejaVuSans-30" transform="translate(63.623047 0)"/>
      </g>
     </g>
    </g>
    <g id="ytick_9">
     <g id="line2d_19">
      <g>
       <use xlink:href="#mf0b7a00d24" x="418.971667" y="51.947642" style="stroke: #000000; stroke-width: 0.8"/>
      </g>
     </g>
     <g id="text_24">
      <!-- 40 -->
      <g transform="translate(383.976667 60.305924) scale(0.22 -0.22)">
       <use xlink:href="#DejaVuSans-34"/>
       <use xlink:href="#DejaVuSans-30" transform="translate(63.623047 0)"/>
      </g>
     </g>
    </g>
   </g>
   <g id="patch_31">
    <path d="M 418.971667 295.72 
L 418.971667 33.36 
" style="fill: none; stroke: #000000; stroke-width: 0.8; stroke-linejoin: miter; stroke-linecap: square"/>
   </g>
   <g id="patch_32">
    <path d="M 721.213333 295.72 
L 721.213333 33.36 
" style="fill: none; stroke: #000000; stroke-width: 0.8; stroke-linejoin: miter; stroke-linecap: square"/>
   </g>
   <g id="patch_33">
    <path d="M 418.971667 295.72 
L 721.213333 295.72 
" style="fill: none; stroke: #000000; stroke-width: 0.8; stroke-linejoin: miter; stroke-linecap: square"/>
   </g>
   <g id="patch_34">
    <path d="M 418.971667 33.36 
L 721.213333 33.36 
" style="fill: none; stroke: #000000; stroke-width: 0.8; stroke-linejoin: miter; stroke-linecap: square"/>
   </g>
   <g id="text_25">
    <!-- EN-FR -->
    <g transform="translate(536.973906 27.36) scale(0.22 -0.22)">
     <defs>
      <path id="DejaVuSans-46" d="M 628 4666 
L 3309 4666 
L 3309 4134 
L 1259 4134 
L 1259 2759 
L 3109 2759 
L 3109 2228 
L 1259 2228 
L 1259 0 
L 628 0 
L 628 4666 
z
" transform="scale(0.015625)"/>
      <path id="DejaVuSans-52" d="M 2841 2188 
Q 3044 2119 3236 1894 
Q 3428 1669 3622 1275 
L 4263 0 
L 3584 0 
L 2988 1197 
Q 2756 1666 2539 1819 
Q 2322 1972 1947 1972 
L 1259 1972 
L 1259 0 
L 628 0 
L 628 4666 
L 2053 4666 
Q 2853 4666 3247 4331 
Q 3641 3997 3641 3322 
Q 3641 2881 3436 2590 
Q 3231 2300 2841 2188 
z
M 1259 4147 
L 1259 2491 
L 2053 2491 
Q 2509 2491 2742 2702 
Q 2975 2913 2975 3322 
Q 2975 3731 2742 3939 
Q 2509 4147 2053 4147 
L 1259 4147 
z
" transform="scale(0.015625)"/>
     </defs>
     <use xlink:href="#DejaVuSans-45"/>
     <use xlink:href="#DejaVuSans-4e" transform="translate(63.183594 0)"/>
     <use xlink:href="#DejaVuSans-2d" transform="translate(137.988281 0)"/>
     <use xlink:href="#DejaVuSans-46" transform="translate(174.072266 0)"/>
     <use xlink:href="#DejaVuSans-52" transform="translate(231.591797 0)"/>
    </g>
   </g>
   <g id="legend_2">
    <g id="patch_35">
     <path d="M 697.013333 61.96 
L 705.813333 61.96 
Q 710.213333 61.96 710.213333 57.56 
L 710.213333 48.76 
Q 710.213333 44.36 705.813333 44.36 
L 697.013333 44.36 
Q 692.613333 44.36 692.613333 48.76 
L 692.613333 57.56 
Q 692.613333 61.96 697.013333 61.96 
z
" style="fill: #ffffff; opacity: 0.8; stroke: #cccccc; stroke-linejoin: miter"/>
    </g>
   </g>
  </g>
  <g id="axes_3">
   <g id="patch_36">
    <path d="M 766.958333 295.72 
L 1069.2 295.72 
L 1069.2 33.36 
L 766.958333 33.36 
z
" style="fill: #ffffff"/>
   </g>
   <g id="patch_37">
    <path d="M 780.696591 295.72 
L 801.157826 295.72 
L 801.157826 228.188468 
L 780.696591 228.188468 
z
" clip-path="url(#pf605f18e05)" style="fill: #1f77b4"/>
   </g>
   <g id="patch_38">
    <path d="M 839.157261 295.72 
L 859.618496 295.72 
L 859.618496 140.397477 
L 839.157261 140.397477 
z
" clip-path="url(#pf605f18e05)" style="fill: #1f77b4"/>
   </g>
   <g id="patch_39">
    <path d="M 897.617932 295.72 
L 918.079167 295.72 
L 918.079167 140.397477 
L 897.617932 140.397477 
z
" clip-path="url(#pf605f18e05)" style="fill: #1f77b4"/>
   </g>
   <g id="patch_40">
    <path d="M 956.078603 295.72 
L 976.539837 295.72 
L 976.539837 93.125405 
L 956.078603 93.125405 
z
" clip-path="url(#pf605f18e05)" style="fill: #1f77b4"/>
   </g>
   <g id="patch_41">
    <path d="M 1014.539273 295.72 
L 1035.000508 295.72 
L 1035.000508 174.163243 
L 1014.539273 174.163243 
z
" clip-path="url(#pf605f18e05)" style="fill: #1f77b4"/>
   </g>
   <g id="patch_42">
    <path d="M 801.157826 295.72 
L 821.61906 295.72 
L 821.61906 167.41009 
L 801.157826 167.41009 
z
" clip-path="url(#pf605f18e05)" style="fill: #ff7f0e"/>
   </g>
   <g id="patch_43">
    <path d="M 859.618496 295.72 
L 880.079731 295.72 
L 880.079731 45.853333 
L 859.618496 45.853333 
z
" clip-path="url(#pf605f18e05)" style="fill: #ff7f0e"/>
   </g>
   <g id="patch_44">
    <path d="M 918.079167 295.72 
L 938.540401 295.72 
L 938.540401 133.644324 
L 918.079167 133.644324 
z
" clip-path="url(#pf605f18e05)" style="fill: #ff7f0e"/>
   </g>
   <g id="patch_45">
    <path d="M 976.539837 295.72 
L 997.001072 295.72 
L 997.001072 180.916396 
L 976.539837 180.916396 
z
" clip-path="url(#pf605f18e05)" style="fill: #ff7f0e"/>
   </g>
   <g id="patch_46">
    <path d="M 1035.000508 295.72 
L 1055.461742 295.72 
L 1055.461742 207.929009 
L 1035.000508 207.929009 
z
" clip-path="url(#pf605f18e05)" style="fill: #ff7f0e"/>
   </g>
   <g id="matplotlib.axis_5">
    <g id="xtick_11">
     <g id="line2d_20">
      <g>
       <use xlink:href="#md8a6177118" x="801.157826" y="295.72" style="stroke: #000000; stroke-width: 0.8"/>
      </g>
     </g>
     <g id="text_26">
      <!-- 1 -->
      <g transform="translate(794.159076 319.436562) scale(0.22 -0.22)">
       <use xlink:href="#DejaVuSans-31"/>
      </g>
     </g>
    </g>
    <g id="xtick_12">
     <g id="line2d_21">
      <g>
       <use xlink:href="#md8a6177118" x="859.618496" y="295.72" style="stroke: #000000; stroke-width: 0.8"/>
      </g>
     </g>
     <g id="text_27">
      <!-- 2 -->
      <g transform="translate(852.619746 319.436562) scale(0.22 -0.22)">
       <use xlink:href="#DejaVuSans-32"/>
      </g>
     </g>
    </g>
    <g id="xtick_13">
     <g id="line2d_22">
      <g>
       <use xlink:href="#md8a6177118" x="918.079167" y="295.72" style="stroke: #000000; stroke-width: 0.8"/>
      </g>
     </g>
     <g id="text_28">
      <!-- 3 -->
      <g transform="translate(911.080417 319.436562) scale(0.22 -0.22)">
       <use xlink:href="#DejaVuSans-33"/>
      </g>
     </g>
    </g>
    <g id="xtick_14">
     <g id="line2d_23">
      <g>
       <use xlink:href="#md8a6177118" x="976.539837" y="295.72" style="stroke: #000000; stroke-width: 0.8"/>
      </g>
     </g>
     <g id="text_29">
      <!-- 4 -->
      <g transform="translate(969.541087 319.436562) scale(0.22 -0.22)">
       <use xlink:href="#DejaVuSans-34"/>
      </g>
     </g>
    </g>
    <g id="xtick_15">
     <g id="line2d_24">
      <g>
       <use xlink:href="#md8a6177118" x="1035.000508" y="295.72" style="stroke: #000000; stroke-width: 0.8"/>
      </g>
     </g>
     <g id="text_30">
      <!-- 5 -->
      <g transform="translate(1028.001758 319.436562) scale(0.22 -0.22)">
       <use xlink:href="#DejaVuSans-35"/>
      </g>
     </g>
    </g>
   </g>
   <g id="matplotlib.axis_6">
    <g id="ytick_10">
     <g id="line2d_25">
      <g>
       <use xlink:href="#mf0b7a00d24" x="766.958333" y="295.72" style="stroke: #000000; stroke-width: 0.8"/>
      </g>
     </g>
     <g id="text_31">
      <!-- 0 -->
      <g transform="translate(745.960833 304.078281) scale(0.22 -0.22)">
       <use xlink:href="#DejaVuSans-30"/>
      </g>
     </g>
    </g>
    <g id="ytick_11">
     <g id="line2d_26">
      <g>
       <use xlink:href="#mf0b7a00d24" x="766.958333" y="228.188468" style="stroke: #000000; stroke-width: 0.8"/>
      </g>
     </g>
     <g id="text_32">
      <!-- 10 -->
      <g transform="translate(731.963333 236.54675) scale(0.22 -0.22)">
       <use xlink:href="#DejaVuSans-31"/>
       <use xlink:href="#DejaVuSans-30" transform="translate(63.623047 0)"/>
      </g>
     </g>
    </g>
    <g id="ytick_12">
     <g id="line2d_27">
      <g>
       <use xlink:href="#mf0b7a00d24" x="766.958333" y="160.656937" style="stroke: #000000; stroke-width: 0.8"/>
      </g>
     </g>
     <g id="text_33">
      <!-- 20 -->
      <g transform="translate(731.963333 169.015218) scale(0.22 -0.22)">
       <use xlink:href="#DejaVuSans-32"/>
       <use xlink:href="#DejaVuSans-30" transform="translate(63.623047 0)"/>
      </g>
     </g>
    </g>
    <g id="ytick_13">
     <g id="line2d_28">
      <g>
       <use xlink:href="#mf0b7a00d24" x="766.958333" y="93.125405" style="stroke: #000000; stroke-width: 0.8"/>
      </g>
     </g>
     <g id="text_34">
      <!-- 30 -->
      <g transform="translate(731.963333 101.483687) scale(0.22 -0.22)">
       <use xlink:href="#DejaVuSans-33"/>
       <use xlink:href="#DejaVuSans-30" transform="translate(63.623047 0)"/>
      </g>
     </g>
    </g>
   </g>
   <g id="patch_47">
    <path d="M 766.958333 295.72 
L 766.958333 33.36 
" style="fill: none; stroke: #000000; stroke-width: 0.8; stroke-linejoin: miter; stroke-linecap: square"/>
   </g>
   <g id="patch_48">
    <path d="M 1069.2 295.72 
L 1069.2 33.36 
" style="fill: none; stroke: #000000; stroke-width: 0.8; stroke-linejoin: miter; stroke-linecap: square"/>
   </g>
   <g id="patch_49">
    <path d="M 766.958333 295.72 
L 1069.2 295.72 
" style="fill: none; stroke: #000000; stroke-width: 0.8; stroke-linejoin: miter; stroke-linecap: square"/>
   </g>
   <g id="patch_50">
    <path d="M 766.958333 33.36 
L 1069.2 33.36 
" style="fill: none; stroke: #000000; stroke-width: 0.8; stroke-linejoin: miter; stroke-linecap: square"/>
   </g>
   <g id="text_35">
    <!-- EN-IT -->
    <g transform="translate(888.966979 27.36) scale(0.22 -0.22)">
     <defs>
      <path id="DejaVuSans-49" d="M 628 4666 
L 1259 4666 
L 1259 0 
L 628 0 
L 628 4666 
z
" transform="scale(0.015625)"/>
      <path id="DejaVuSans-54" d="M -19 4666 
L 3928 4666 
L 3928 4134 
L 2272 4134 
L 2272 0 
L 1638 0 
L 1638 4134 
L -19 4134 
L -19 4666 
z
" transform="scale(0.015625)"/>
     </defs>
     <use xlink:href="#DejaVuSans-45"/>
     <use xlink:href="#DejaVuSans-4e" transform="translate(63.183594 0)"/>
     <use xlink:href="#DejaVuSans-2d" transform="translate(137.988281 0)"/>
     <use xlink:href="#DejaVuSans-49" transform="translate(174.072266 0)"/>
     <use xlink:href="#DejaVuSans-54" transform="translate(203.564453 0)"/>
    </g>
   </g>
   <g id="legend_3">
    <g id="patch_51">
     <path d="M 1045 61.96 
L 1053.8 61.96 
Q 1058.2 61.96 1058.2 57.56 
L 1058.2 48.76 
Q 1058.2 44.36 1053.8 44.36 
L 1045 44.36 
Q 1040.6 44.36 1040.6 48.76 
L 1040.6 57.56 
Q 1040.6 61.96 1045 61.96 
z
" style="fill: #ffffff; opacity: 0.8; stroke: #cccccc; stroke-linejoin: miter"/>
    </g>
   </g>
  </g>
 </g>
 <defs>
  <clipPath id="pa73b9ef470">
   <rect x="70.985" y="33.36" width="302.241667" height="262.36"/>
  </clipPath>
  <clipPath id="pe7e677e973">
   <rect x="418.971667" y="33.36" width="302.241667" height="262.36"/>
  </clipPath>
  <clipPath id="pf605f18e05">
   <rect x="766.958333" y="33.36" width="302.241667" height="262.36"/>
  </clipPath>
 </defs>
</svg>
